Coordinates
version=1
nRows=15
nColumns=34
inDegrees=yes

Units are S.I. units (second, meters, Newtons, ...)
If the header above contains a line with 'inDegrees', this indicates whether rotational values are in degrees (yes) or radians (no).

endheader
time	pelvis_tilt	pelvis_list	pelvis_rotation	pelvis_tx	pelvis_ty	pelvis_tz	hip_flexion_r	hip_adduction_r	hip_rotation_r	knee_angle_r	ankle_angle_r	subtalar_angle_r	mtp_angle_r	hip_flexion_l	hip_adduction_l	hip_rotation_l	knee_angle_l	ankle_angle_l	subtalar_angle_l	mtp_angle_l	lumbar_extension	lumbar_bending	lumbar_rotation	arm_flex_r	arm_add_r	arm_rot_r	elbow_flex_r	pro_sup_r	arm_flex_l	arm_add_l	arm_rot_l	elbow_flex_l	pro_sup_l
      1.56666670	    -22.59197194	    -17.41110786	     22.94970587	      1.84223961	      0.80916109	     -0.10785890	     16.17314142	     13.19541176	    -39.99999995	      6.85814300	     12.93729819	     -7.32869640	      0.00000000	     -0.33446772	    -24.07147548	    -19.42009880	      0.00000000	    -16.98611601	     17.84101808	      0.00000000	     24.41227205	     19.52050585	      7.37923079	    -39.53363160	      5.96915110	    -39.59755572	     73.34278798	     89.75912910	     13.52925601	     -7.15532078	     63.64969860	     29.71706273	     78.25709511
      1.58333330	    -22.46572008	    -15.49710550	     22.09059002	      1.86355498	      0.81246840	     -0.10490504	     13.77569549	     12.47436755	    -39.99999995	      5.92894043	     13.56113572	     -4.26323437	      0.00000000	     -1.82084457	    -22.19441603	    -17.23551803	      0.00000000	    -15.48907489	     17.55845809	      0.00000000	     23.72287607	     17.70131268	      8.82979133	    -38.86654782	      5.50805481	    -39.15553264	     73.78664064	     90.78605998	     12.08234058	     -7.93596299	     61.75356933	     29.88330871	     77.79336321
      1.60000000	    -23.06242135	    -13.11625878	     20.22973305	      1.87645131	      0.81471043	     -0.09936094	     11.57377634	     11.40964966	    -39.17844254	      4.41875973	     14.58707719	     -0.66618243	      0.00000000	     -2.08583968	    -19.66808613	    -14.05625374	      1.33543544	    -12.24915715	     16.15802608	      0.00000000	     23.31022759	     15.46055525	      8.23918211	    -36.92238688	      4.25628953	    -38.39507005	     74.55894866	     95.52928765	      7.70015077	    -10.44628685	     54.05387873	     33.35831607	     76.68823064
      1.61666670	    -23.44449700	    -10.31060798	     17.92958264	      1.88861169	      0.81735528	     -0.09244197	      8.88343378	     10.18744160	    -36.80162506	      2.34770872	     14.07060230	      1.10673189	      0.00000000	     -2.11276813	    -16.81898276	    -12.36054053	      3.68853664	     -9.01244676	     14.54326171	      0.00000000	     22.58929188	     13.10000386	     10.77097422	    -36.10664313	      4.18606435	    -37.82950477	     74.89489230	     95.94801926	      6.04813040	    -11.93638771	     53.52052780	     33.39542287	     76.70236515
      1.63333330	    -23.83536374	     -7.12667118	     15.79634197	      1.89408520	      0.82023553	     -0.08558448	      6.69326229	      8.13530683	    -35.56191348	      0.61713707	     14.52922619	      4.06392241	      0.00000000	     -1.38097092	    -13.24503847	    -10.27190837	      5.84100278	     -8.30909010	     10.29130617	      0.00000000	     21.69957706	     10.19155713	     13.03263622	    -34.67418581	      3.58787163	    -36.69424873	     74.93872203	     97.45365703	      3.86840204	    -13.61406419	     50.79518090	     35.24483546	     76.56937772
      1.65000000	    -24.33912073	     -3.81354852	     13.39378702	      1.90604683	      0.82264493	     -0.07838273	      5.29811311	      5.48634521	    -34.70024859	      0.00000000	     14.57192150	      6.88802048	      0.00000000	      0.11524546	     -9.53491379	    -11.32889193	      8.11897380	     -7.16827924	      9.02610808	      0.00000000	     20.09083200	      4.07513384	     -6.02775949	    -19.51711658	     -5.77327997	    -18.87436516	     68.17942923	    119.74817918	    -22.29963455	     -9.95558411	     -0.19149331	     57.43751820	     77.41087393
      1.66666670	    -24.41990481	     -0.81239059	     11.26185496	      1.91701881	      0.82591275	     -0.07191733	      3.97459438	      2.93240795	    -34.58392603	      0.00000000	     15.28518548	      9.41101974	      0.00000000	      1.66685841	     -6.08823118	    -11.23621351	     10.09784469	     -7.24326422	      5.83906607	      0.00000000	     20.80650891	     -3.06172900	    -29.49879489	      9.10642643	    -10.22918351	     34.96373264	     36.25676834	     98.76111251	    -38.70956518	      6.90894947	    -34.73547591	     64.15589076	    108.21882494
      1.68333330	    -24.68703447	      2.08705750	      9.07432487	      1.92509963	      0.82859554	     -0.06527316	      3.17848450	      0.33690001	    -34.23679976	      0.00000000	     14.84953284	     10.80335745	      0.00000000	      3.81602528	     -2.87557590	    -12.11351210	     12.14318415	     -8.46495241	      2.65304468	      0.00000000	     21.15440649	     -5.50951514	    -26.16461011	     10.05750714	     -9.09285215	     34.85001306	     35.71261295	     97.47781241	    -39.62536324	      6.82091585	    -34.93444453	     63.35860827	    107.65321846
      1.70000000	    -24.86564137	      4.48905782	      7.19466177	      1.93117942	      0.82936505	     -0.05991125	      2.63369525	     -1.87893430	    -33.77093792	      0.00000000	     14.39305113	     11.99412062	      0.00000000	      6.04656912	     -0.29529547	    -13.49988061	     13.58429843	     -9.72910327	     -0.00327713	      0.00000000	     21.60131535	     -7.45212282	    -23.65228533	     11.21288327	     -8.13187379	     34.95449032	     35.93649192	     96.44141509	    -40.60061656	      6.97701304	    -35.26420340	     62.37438950	    106.92816130
      1.71666670	    -24.84307103	      6.44168535	      5.45359248	      1.93355726	      0.83041452	     -0.05469362	      2.17838826	     -3.69747727	    -33.16450523	      0.00000000	     13.89943711	     12.72574419	      0.00000000	      8.15790787	      1.73251574	    -15.55487504	     14.16356196	     -9.42328624	     -1.57003646	      0.00000000	     21.79297925	     -8.87637082	    -21.81038291	     12.64724045	     -7.18164567	     34.99800617	     36.43610509	     96.12575906	    -41.56427104	      7.34227088	    -35.39971256	     61.49627954	    106.62815285
      1.73333330	    -24.84537367	      7.82021800	      4.31247315	      1.93987715	      0.83108835	     -0.05071539	      1.97241110	     -5.03121790	    -32.78871106	      0.00000000	     13.71955123	     13.14235602	      0.00000000	      9.81119744	      3.32182275	    -17.33596324	     13.44449886	     -8.57476707	     -2.57405365	      0.00000000	     22.00016498	     -9.89403977	    -20.11958695	     13.84559805	     -6.51487799	     35.09836225	     36.64116100	     95.83719621	    -42.23173079	      7.56284451	    -35.60156472	     60.57449876	    106.26352816
      1.75000000	    -24.94980247	      8.59806035	      3.57160026	      1.95115879	      0.82993682	     -0.04825986	      1.90876855	     -5.77997289	    -32.52370389	      0.00000000	     14.26059948	     13.97056426	      0.00000000	     10.75377992	      4.42640638	    -18.99751410	     11.80199175	     -5.50300676	     -1.10049534	      0.00000000	     22.37593108	    -10.48722766	    -18.78801251	     14.88597692	     -6.14263248	     35.52655030	     36.28188350	     94.96118907	    -42.59277716	      7.88082517	    -36.03504211	     59.08977433	    104.97261854
      1.76666670	    -25.18937549	      8.89086815	      3.17115579	      1.95914448	      0.82986082	     -0.04648112	      1.89146104	     -6.07622638	    -32.01176191	      0.00000000	     15.05808834	     14.54534358	      0.00000000	     11.73001759	      5.10837614	    -18.55806364	     10.54357460	     -0.73023486	      0.53568528	      0.00000000	     22.85330024	    -10.78584872	    -18.52307364	     15.78085191	     -5.91086111	     35.98649589	     36.21111540	     94.21267689	    -43.46289104	      8.70677354	    -36.22037305	     58.60597368	    103.77903978
      1.78333330	    -25.18985632	      9.07481124	      2.55856190	      1.95109155	      0.82851407	     -0.04454343	      1.92199101	     -6.22865515	    -31.17236716	      0.00000000	     15.94721072	     14.53787224	      0.00000000	     12.90686733	      5.55460913	    -17.27443740	      9.38854594	      4.60342566	      2.11306210	      0.00000000	     22.65984206	    -10.80629453	    -18.12975969	     16.88163468	     -5.67919677	     36.52119164	     36.09047676	     93.54995317	    -43.50880941	      9.02889815	    -36.22277966	     57.94190366	    102.74146762
      1.80000000	    -24.92526021	      9.19546541	      2.02442775	      1.94511341	      0.82542405	     -0.04349308	      1.93171057	     -6.27042022	    -30.12472239	      0.00000000	     16.97917834	     14.30505700	      0.00000000	     13.85870094	      5.87460995	    -16.18099804	      7.85682789	      9.94374235	      4.63221269	      0.00000000	     21.86510042	    -10.77445825	    -18.03413059	     18.16639347	     -5.26307684	     37.02433747	     35.83321822	     92.82053252	    -42.87855246	      8.83486465	    -35.74120572	     57.33023745	    101.76147502
